<svg xmlns="http://www.w3.org/2000/svg" id="Layer_1" data-name="Layer 1" viewBox="0 0 1920 1080"><defs><style>.cls-4{fill:#f57e20}.cls-5{fill:#fff}</style></defs><path d="M616.054 235.014c19.806 23.708 29.718 54.987 29.718 93.819 0 38.391-10.002 69.329-30.002 92.805-20.003 23.487-46.388 35.226-79.149 35.226H417.754c-1.528 0-2.286.909-2.286 2.708v208.642c0 4.52-1.91 6.773-5.715 6.773h-18.858c-3.814 0-5.715-2.253-5.715-6.773V206.225c0-4.509 1.902-6.776 5.715-6.776h146.869c32.376 0 58.477 11.855 78.29 35.565Zm-22.573 164.608c14.664-17.835 22.003-41.204 22.003-70.111 0-29.349-7.339-52.943-22.003-70.789-14.67-17.835-34.002-26.757-58.003-26.757H417.754c-1.528 0-2.286.911-2.286 2.71V423.67c0 1.81.758 2.71 2.286 2.71h117.724c24.001 0 43.333-8.913 58.003-26.759Z" style="fill:#003148;stroke:#003148;stroke-miterlimit:10;stroke-width:6px"/><path d="M1233.642 450.875c-.906-12.822-2.934-24.401-6.076-34.756-7.653-27.434-22.046-49.262-43.186-65.458q-31.73-24.293-77.605-24.292c-13.849 0-26.621 1.973-38.372 5.822l.338-.511c-29.93 10.296-53.153 27.497-69.642 51.608-15.01 21.961-22.259 47.686-21.806 77.15l-.088.199v336.761c0 4.491 2.246 6.75 6.75 6.75h22.268c4.491 0 6.747-2.259 6.747-6.75V632.739c0-1.349.337-2.13 1.015-2.361.675-.221 1.455.116 2.361 1.012 9.446 14.846 21.931 26.214 37.452 34.082 15.521 7.864 33.172 11.807 52.976 11.807 31.482 0 57.917-8.202 79.292-24.629 21.361-16.417 35.428-38.573 42.174-66.473 2.702-10.342 4.494-21.931 5.401-34.753.896-12.822 1.349-29.577 1.349-50.274s-.453-37.452-1.349-50.274Zm-36.443 101.56c-1.349 10.798-3.827 20.247-7.421 28.343l-2.699 7.425q-8.1 25.654-30.367 41.5c-14.846 10.577-32.623 15.858-53.313 15.858-21.15 0-38.801-5.735-52.973-17.208s-23.736-26.422-28.681-44.876c-3.152-8.992-5.397-18.894-6.747-29.693-1.353-10.795-2.027-28.108-2.027-51.961s.675-41.166 2.027-51.961c1.349-10.798 3.595-20.247 6.747-28.343 4.944-18.441 14.509-33.625 28.681-45.551 14.172-11.916 31.822-17.882 52.973-17.882q33.059.002 56.687 17.545c15.743 11.705 25.866 26.994 30.367 45.888 3.142 9.003 5.397 18.789 6.747 29.355 1.349 10.573 2.024 27.563 2.024 50.949 0 22.943-.675 39.816-2.024 50.611ZM685.851 449.547c.906-12.822 2.934-24.401 6.076-34.756 7.653-27.434 22.046-49.262 43.186-65.458q31.73-24.293 77.605-24.292c13.849 0 26.621 1.973 38.372 5.822l-.338-.511c29.93 10.296 53.153 27.497 69.642 51.608 15.01 21.961 22.259 47.686 21.806 77.15l.088.199V664.87c0 4.491-2.246 6.75-6.75 6.75H913.27c-4.491 0-6.747-2.259-6.747-6.75v-33.46c0-1.349-.337-2.13-1.015-2.361-.675-.221-1.455.116-2.361 1.012-9.446 14.846-21.931 26.214-37.452 34.082-15.521 7.864-33.172 11.807-52.976 11.807-31.482 0-57.917-8.202-79.292-24.629-21.361-16.417-35.428-38.573-42.174-66.473-2.702-10.342-4.494-21.931-5.401-34.753-.896-12.822-1.349-29.577-1.349-50.274s.453-37.452 1.349-50.274Zm36.442 101.559c1.349 10.798 3.827 20.247 7.421 28.343l2.699 7.425q8.1 25.654 30.367 41.5c14.846 10.577 32.623 15.858 53.313 15.858 21.15 0 38.801-5.735 52.973-17.208s23.736-26.422 28.681-44.876c3.152-8.992 5.397-18.894 6.747-29.693 1.353-10.795 2.027-28.108 2.027-51.961s-.675-41.166-2.027-51.961c-1.349-10.798-3.595-20.247-6.747-28.343-4.944-18.441-14.509-33.625-28.681-45.551-14.172-11.916-31.822-17.882-52.973-17.882q-33.059.002-56.687 17.545c-15.743 11.705-25.866 26.994-30.367 45.888-3.142 9.003-5.397 18.789-6.747 29.355-1.349 10.573-2.024 27.563-2.024 50.949 0 22.943.675 39.816 2.024 50.611Zm768.574-67.502h-136.842a6.16 6.16 0 0 0-6.159 6.202l.135 19.374c.024 3.416 2.812 6.162 6.229 6.116 65.477-.88 174.544-1.324 174.544-1.324 4.491 0 6.747-2.246 6.747-6.75 0-17.092-.232-31.379-.675-42.849-.453-11.473-1.349-21.481-2.699-30.03-5.397-33.744-19.126-60.166-41.166-79.292-22.046-19.119-51.518-28.681-88.4-28.681q-48.587.001-81.994 25.641c-22.268 17.106-37.009 39.816-44.202 68.16-2.256 9.446-3.711 19.801-4.385 31.042-.675 11.251-1.012 27.9-1.012 49.937 0 21.15.675 38.699 2.024 52.635 1.349 13.95 3.816 26.551 7.425 37.792 8.096 26.551 23.164 47.47 45.214 62.759 22.036 15.3 48.809 22.943 80.304 22.943 28.786 0 53.869-6.515 75.244-19.569 21.361-13.044 36.998-30.589 46.901-52.635 1.792-3.598.675-6.519-3.377-8.774l-17.545-8.771c-3.605-1.796-6.525-.675-8.771 3.373q-12.83 25.651-35.431 40.15c-15.078 9.681-33.182 14.509-54.322 14.509q-39.826.001-65.795-19.232c-17.324-12.822-28.459-30.252-33.403-52.298-2.259-9.449-3.377-28.565-3.377-57.361v-35.765c.896-26.541 2.467-44.086 4.726-52.639 4.491-21.14 14.846-38.126 31.042-50.949q24.293-19.233 60.735-19.232c36.442.001 44.757 6.641 61.41 19.906 16.639 13.276 27.434 30.705 32.391 52.298q3.05 15.27 3.343 44.346c.049 4.921-3.936 8.967-8.858 8.967Z" style="fill:#003148;stroke:#003148;stroke-miterlimit:10"/><path d="M1574.705 672.853q-.776-2.359.776-5.75l110.694-226.694q1.032-2.029 0-4.061l-110.694-226.691c-.695-1.799-1.034-3.152-1.034-4.061 0-2.706 1.373-4.061 4.137-4.061h19.14c2.409 0 4.476 1.587 6.207 4.738l97.762 201.655c.341.455.857.675 1.552.675.688 0 1.204-.221 1.552-.675l97.764-201.655c1.722-3.152 3.79-4.738 6.207-4.738h18.622c2.07 0 3.362.793 3.88 2.369.518 1.587.258 3.499-.776 5.753l-110.179 227.369a8 8 0 0 0 0 4.061l110.179 226.016c.686 1.808 1.034 3.16 1.034 4.059q-.002 4.062-4.137 4.061h-18.622q-3.625.002-6.207-4.736l-97.764-200.979c-.348-.898-.863-1.353-1.552-1.353-.695 0-1.211.455-1.552 1.353l-97.762 200.979q-2.596 4.738-6.207 4.736h-19.14c-2.07 0-3.362-.782-3.88-2.369Z" style="fill:#003148;stroke:#003148;stroke-miterlimit:10;stroke-width:10px"/><path d="M645.82 532.256c0 .125-.266.529-.437.851l-.57 1.017-2.291 4.047c-39.477 70.041-101.682 179.752-141.663 250.758-6.369 11.414-39.99 70.996-45.551 80.999-.048.104-.105.208-.152.301-10.333-11.736-20.276-23.866-30.067-36.131l-5.285-6.662a29 29 0 0 1-1.759-2.355c1.759-.955 3.213-2.169 4.268-3.59 2.681-3.621 2.348-7.98-.837-10.854-.209-.197-.456-.363-.694-.54l25.276-32.79c7.785-10.107 15.57-20.203 23.356-30.31.352-.301.637-.674.856-1.1 3.707-4.815 7.414-9.619 11.122-14.434l4.097-5.313c.447.042.894.062 1.35.062 2.082 0 4.249-.363 6.274-1.09 2.89-1.027 5.209-2.646 6.721-4.69 2.69-3.621 2.348-7.98-.827-10.854-1.274-1.152-2.975-2.003-4.933-2.47a16.6 16.6 0 0 0-3.65-.425h-.095c-4.943 0-9.857 2.034-12.567 5.199-1.873 2.189-2.624 4.763-2.101 7.253.314 1.453 1.036 2.739 2.091 3.819l-3.289 4.265c-3.07 3.985-6.141 7.98-9.221 11.964-6.084-1.889-11.882-3.341-17.167 2.293-4.838 5.157-9.411 10.667-14.106 15.99-5.133 5.811-10.162 11.798-15.428 17.474-1.835 1.982-3.964 3.787-6.683 3.082-2.424-.633-4.933-2.366-7.215-3.455-7.776-3.715-15.561-7.44-23.346-11.155-6.245-2.988-12.414-5.261-19.43-4.317-4.458.602-7.167 3.59-10.951 6.61l-18.736 14.973a81897 81897 0 0 0-34.221 27.352 11 11 0 0 1-.323-.125 261 261 0 0 0-8.298-3.829 85 85 0 0 0 4.772-3.507c111.426-87.899 238.888-181.962 350.969-268.813.333-.28.817.114.741.498ZM527.541 647.964c2.671-2.771-1.369-7.17-4.03-4.4-6.673 6.942-13.356 13.873-20.029 20.815-4.468 4.638-8.926 9.277-13.394 13.915-2.738 2.854-5.599 6.672-9.477 7.533-6.416 1.422-12.576-1.38-18.574 2.791-2.11 1.463-4.011 3.518-5.913 5.271l-27.367 25.142a20933 20933 0 0 0-16.597 15.264c-5.361-.612-11.293 1.411-14.439 5.095-1.882 2.189-2.633 4.763-2.101 7.243.551 2.646 2.452 4.773 5.333 5.977.542.228 1.122.425 1.787.612 1.321.342 2.7.498 4.087.498 5.086 0 10.285-2.2 12.947-5.79 2.034-2.729 2.367-5.977.884-8.706-.542-.986-1.302-1.847-2.243-2.573 12.994-11.943 25.989-23.887 38.983-35.82 2.253-2.075 4.449-4.368 6.825-6.278 4.62-3.715 10.437-1.837 15.751-2.366 5.133-.519 8.565-3.684 12.072-7.326 3.793-3.953 7.595-7.896 11.397-11.85 8.032-8.353 16.065-16.696 24.097-25.049Z" class="cls-4"/><path d="M636.239 536.78c-12.291 8.778-27.348 20.068-37.757 27.581-84.401 62.248-191.768 139.117-275.171 202.798l-22.681 17.308c-6.492 5.167-16.721 11.85-21.873 18.564l-2.595 3.3c.01.01.019.021.029.021a16 16 0 0 0-1.521 2.553c-.523 1.173-3.27 7.066-3.869 8.353-4.049 8.81-8.061 17.63-11.968 26.512-3.099 6.973-6.093 14.008-9.04 21.075l-15.029-50.409-9.791-32.779c6.454-3.953 96.378-58.969 96.426-59.001C343.158 709.8 586.19 566.334 636.237 536.782Zm-8.423.695c4.078-1.39 10.181-3.725 14.848-5.219-.675.467-1.378.965-2.091 1.453-38.726 20.628-310.646 176.888-321.91 183.57l-.171-.322-3.84 2.366c-1.103.228-2.215.249-3.317.228-4.582.031-16.483.125-21.245.145-54.201.28-115.884-.83-169.943-.197-1.312.021-2.662.031-4.021.031a3750297 3750297 0 0 0 511.692-182.055Z" class="cls-4"/><path d="M523.51 643.564c2.662-2.771 6.702 1.629 4.03 4.4-8.032 8.353-16.065 16.696-24.097 25.049-3.802 3.953-7.605 7.896-11.397 11.85-3.508 3.642-6.939 6.807-12.072 7.326-5.314.529-11.131-1.349-15.751 2.366-2.376 1.909-4.572 4.202-6.825 6.278a115342 115342 0 0 0-38.983 35.82c.941.726 1.702 1.588 2.243 2.573 1.483 2.729 1.15 5.977-.884 8.706-2.662 3.59-7.861 5.79-12.947 5.79-1.388 0-2.766-.156-4.087-.498a15 15 0 0 1-1.787-.612c-2.88-1.204-4.781-3.331-5.333-5.977-.532-2.48.219-5.053 2.101-7.243 3.146-3.684 9.078-5.707 14.439-5.095 5.532-5.095 11.065-10.179 16.597-15.264l27.367-25.142c1.901-1.754 3.802-3.808 5.913-5.271 5.998-4.171 12.158-1.37 18.574-2.791 3.878-.861 6.74-4.68 9.477-7.533 4.468-4.638 8.926-9.277 13.394-13.915 6.673-6.942 13.356-13.873 20.029-20.815Z" class="cls-5"/><path d="M453.549 746.488c1.835-1.629 4.287-1.515 6.749-.882-12.652 16.405-25.295 32.81-37.947 49.236a5233 5233 0 0 1-8.802 11.414 5.2 5.2 0 0 0-.779 1.484c-4.924.01-9.838 2.044-12.529 5.199-1.882 2.189-2.633 4.763-2.101 7.253.551 2.646 2.452 4.773 5.38 5.998.646.259 1.207.446 1.73.571 1.274.342 2.652.508 4.059.508 1.892 0 3.85-.322 5.713-.913.941.955 1.759 2.013 2.529 3.113l5.038 6.9c3.365 4.576 6.644 9.245 9.962 13.873 3.279 4.659 6.549 9.328 9.772 14.05.96 1.411 1.911 2.833 2.861 4.244l-.399-.166c-44.363-18.387-93.184-39.233-138.774-57.185l23.298-18.615c10.181-8.135 20.133-17.401 30.865-24.675 4.924-3.331 11.683-.56 16.369 1.681 7.414 3.549 14.829 7.087 22.243 10.636 5.437 2.604 11.702 7.046 17.842 5.219 5.513-1.65 9.734-8.135 13.527-12.441a34189 34189 0 0 0 19.144-21.687c1.378-1.567 2.7-3.445 4.249-4.815Z" class="cls-4"/><path d="M636.324 533.937c2.823-.996 5.675-1.909 8.451-3.103.409-.218.941-.228 1.321.062.456.301.76.903.665 1.525-.038.291-.2.602-.276.726l-.276.519-.551 1.017-2.205 4.099c-2.633 4.835-10.485 19.456-13.26 24.571-50.494 93.554-117.262 217.564-168.032 311.066-1.036 2.272-2.776 4.036-4.819 5.074a3.55 3.55 0 0 1-2.471.872 8.76 8.76 0 0 1-4.933-.394c-42.804-17.225-89.848-36.349-133.669-54.57-21.16 16.467-42.833 33.236-64.449 48.956-.589.643-1.359 1.017-2.205 1.058-.086.01-.171.021-.257.021-1.416 0-2.728-1.038-3.175-2.604l-26.464-88.698a3 3 0 0 1-.665-.187S91.345 728.402 90.642 728.09c-.922-.249-1.711-.986-2.034-2.044a3.35 3.35 0 0 1 .276-2.563c.029-.052.067-.104.095-.156l.114-.187a2.72 2.72 0 0 1 1.587-1.121c.057-.01.124-.031.181-.042 144.468-49.766 377.281-130.121 519.467-179.088l17.329-5.966 8.669-2.988Zm-.085 2.843c-50.048 29.552-293.08 173.017-314.838 185.874-.048.031-89.971 55.047-96.426 59.001l9.791 32.779 15.029 50.409c2.947-7.066 5.941-14.102 9.04-21.075 3.907-8.882 7.918-17.702 11.968-26.512.599-1.287 3.346-7.181 3.869-8.353a16 16 0 0 1 1.521-2.553c-.01 0-.019-.01-.029-.021l2.595-3.3c5.152-6.714 15.38-13.396 21.873-18.564l22.681-17.308c83.403-63.68 190.77-140.549 275.171-202.798 10.409-7.513 25.466-18.802 37.757-27.581Zm8.84-5.022C532.997 618.609 405.535 712.672 294.11 800.571a85 85 0 0 1-4.772 3.507 261 261 0 0 1 8.298 3.829c.105.042.209.083.323.125a74452 74452 0 0 1 34.221-27.352l18.736-14.973c3.783-3.02 6.492-6.008 10.951-6.61 7.015-.944 13.184 1.328 19.43 4.317 7.785 3.715 15.57 7.44 23.346 11.155 2.281 1.09 4.791 2.822 7.215 3.455 2.719.706 4.848-1.1 6.683-3.082 5.266-5.676 10.295-11.663 15.428-17.474 4.696-5.323 9.268-10.833 14.106-15.99 5.285-5.634 11.084-4.182 17.167-2.293 3.08-3.985 6.15-7.98 9.221-11.964l3.289-4.265c-1.055-1.079-1.778-2.366-2.091-3.819-.523-2.49.228-5.064 2.101-7.253 2.709-3.165 7.624-5.199 12.567-5.199h.095c1.274.01 2.5.156 3.65.425 1.958.467 3.66 1.318 4.933 2.47 3.175 2.874 3.517 7.232.827 10.854-1.511 2.044-3.831 3.663-6.721 4.69a18.8 18.8 0 0 1-6.274 1.09c-.456 0-.903-.021-1.35-.062l-4.097 5.313c-3.707 4.815-7.414 9.619-11.122 14.434a3.6 3.6 0 0 1-.856 1.1c-7.785 10.107-15.57 20.203-23.356 30.31l-25.276 32.79c.238.176.485.342.694.54 3.184 2.874 3.517 7.232.837 10.854-1.055 1.422-2.51 2.636-4.268 3.59a29 29 0 0 0 1.759 2.355l5.285 6.662c9.791 12.265 19.734 24.395 30.067 36.131.048-.093.105-.197.152-.301 5.561-10.003 39.182-69.585 45.551-80.999 39.981-71.006 102.186-180.717 141.663-250.758l2.291-4.047.57-1.017c.171-.322.437-.726.437-.851.076-.384-.409-.778-.741-.498Zm-354.99 187.938c4.762-.021 16.663-.114 21.245-.145 1.103.021 2.215 0 3.317-.228l3.84-2.366.171.322c11.264-6.682 283.184-162.942 321.91-183.57.713-.488 1.416-.986 2.091-1.453-4.667 1.494-10.77 3.829-14.848 5.219A3750297 3750297 0 0 1 116.123 719.53c1.359 0 2.709-.01 4.021-.031 54.059-.633 115.741.477 169.943.197Zm19.847 2.522-5.637.197c-59.23 1.889-124.81 6.008-183.964 7.762-2.899.073-5.846.218-8.821.291 33.108 14.403 98.546 42.865 108.384 47.151zm150.362 23.388c-2.462-.633-4.914-.747-6.749.882-1.549 1.37-2.871 3.248-4.249 4.815-6.378 7.232-12.757 14.454-19.144 21.687-3.793 4.306-8.013 10.792-13.527 12.441-6.141 1.826-12.405-2.615-17.842-5.219-7.414-3.549-14.829-7.087-22.243-10.636-4.686-2.241-11.445-5.012-16.369-1.681-10.732 7.274-20.684 16.54-30.865 24.675l-23.298 18.615c45.589 17.951 94.411 38.798 138.774 57.185 0 0 .152.062.399.166-.951-1.411-1.901-2.833-2.861-4.244-3.222-4.721-6.492-9.391-9.772-14.05-3.317-4.628-6.597-9.297-9.962-13.873l-5.038-6.9c-.77-1.1-1.587-2.158-2.529-3.113-1.863.591-3.821.913-5.713.913-1.407 0-2.785-.166-4.059-.508a12 12 0 0 1-1.73-.571c-2.928-1.224-4.829-3.352-5.38-5.998-.532-2.49.219-5.064 2.101-7.253 2.69-3.154 7.605-5.188 12.529-5.199a5.2 5.2 0 0 1 .779-1.484 4938 4938 0 0 0 8.802-11.414c12.652-16.426 25.295-32.831 37.947-49.236ZM312.874 823.99a7452 7452 0 0 1-17.671-7.388 104 104 0 0 1-12.025-5.842 6.15 6.15 0 0 0-1.483 2.044c-7.586 16.613-15.39 33.163-23.555 49.454 18.099-13.095 36.217-25.547 54.734-38.268" class="cls-5"/><path d="m309.936 722.218-90.038 55.4c-9.838-4.285-75.276-32.748-108.384-47.151 2.975-.073 5.922-.218 8.821-.291 59.154-1.754 124.734-5.873 183.964-7.762zm-14.733 94.384a7452 7452 0 0 0 17.671 7.388c-18.517 12.722-36.635 25.173-54.734 38.268 8.165-16.291 15.97-32.842 23.555-49.454a6.1 6.1 0 0 1 1.483-2.044 104 104 0 0 0 12.025 5.842" class="cls-4"/></svg>