<svg xmlns="http://www.w3.org/2000/svg" id="Layer_1" data-name="Layer 1" viewBox="0 0 1920 1080"><defs><style>.cls-1{fill:#f57e20}.cls-2{fill:#fff}</style></defs><path d="M553.918 284.265c19.806 23.708 29.718 54.987 29.718 93.819 0 38.391-10.002 69.329-30.002 92.805-20.003 23.487-46.388 35.226-79.149 35.226H355.618c-1.528 0-2.286.909-2.286 2.708v208.642c0 4.52-1.91 6.773-5.715 6.773h-18.858c-3.814 0-5.715-2.253-5.715-6.773V255.476c0-4.509 1.902-6.776 5.715-6.776h146.869c32.376 0 58.477 11.855 78.29 35.565Zm-22.573 164.608c14.664-17.835 22.003-41.204 22.003-70.111 0-29.349-7.339-52.943-22.003-70.789-14.67-17.835-34.002-26.757-58.003-26.757H355.618c-1.528 0-2.286.911-2.286 2.71v188.995c0 1.81.758 2.71 2.286 2.71h117.724c24.001 0 43.333-8.913 58.003-26.759Z" style="fill:#fff;stroke:#fff;stroke-miterlimit:10;stroke-width:6px"/><path d="M1171.506 500.126c-.906-12.822-2.934-24.401-6.076-34.756-7.653-27.434-22.046-49.262-43.186-65.458q-31.73-24.293-77.605-24.292c-13.849 0-26.621 1.973-38.372 5.822l.338-.511c-29.93 10.296-53.153 27.497-69.642 51.608-15.01 21.961-22.259 47.686-21.806 77.15l-.088.199v336.761c0 4.491 2.246 6.75 6.75 6.75h22.268c4.491 0 6.747-2.259 6.747-6.75V681.99c0-1.349.337-2.13 1.015-2.361.675-.221 1.455.116 2.361 1.012 9.446 14.846 21.931 26.214 37.452 34.082 15.521 7.864 33.172 11.807 52.976 11.807 31.482 0 57.917-8.202 79.292-24.629 21.361-16.417 35.428-38.573 42.174-66.473 2.702-10.342 4.494-21.931 5.401-34.753.896-12.822 1.349-29.577 1.349-50.274s-.453-37.452-1.349-50.274Zm-36.443 101.56c-1.349 10.798-3.827 20.247-7.421 28.343l-2.699 7.425q-8.1 25.654-30.367 41.5c-14.846 10.577-32.623 15.858-53.313 15.858-21.15 0-38.801-5.735-52.973-17.208s-23.736-26.422-28.681-44.876c-3.152-8.992-5.397-18.894-6.747-29.693-1.353-10.795-2.027-28.108-2.027-51.961s.675-41.166 2.027-51.961c1.349-10.798 3.595-20.247 6.747-28.343 4.944-18.441 14.509-33.625 28.681-45.551 14.172-11.916 31.822-17.882 52.973-17.882q33.059.002 56.687 17.545c15.743 11.705 25.866 26.994 30.367 45.888 3.142 9.003 5.397 18.789 6.747 29.355 1.349 10.573 2.024 27.563 2.024 50.949 0 22.943-.675 39.816-2.024 50.611ZM623.714 498.798c.906-12.822 2.934-24.401 6.076-34.756 7.653-27.434 22.046-49.262 43.186-65.458q31.73-24.293 77.605-24.292c13.849 0 26.621 1.973 38.372 5.822l-.338-.511c29.93 10.296 53.153 27.497 69.642 51.608 15.01 21.961 22.259 47.686 21.806 77.15l.088.199v205.561c0 4.491-2.246 6.75-6.75 6.75h-22.268c-4.491 0-6.747-2.259-6.747-6.75v-33.46c0-1.349-.337-2.13-1.015-2.361-.675-.221-1.455.116-2.361 1.012-9.446 14.846-21.931 26.214-37.452 34.082-15.521 7.864-33.172 11.807-52.976 11.807-31.482 0-57.917-8.202-79.292-24.629-21.361-16.417-35.428-38.573-42.174-66.473-2.702-10.342-4.494-21.931-5.401-34.753-.896-12.822-1.349-29.577-1.349-50.274s.453-37.452 1.349-50.274Zm36.443 101.559c1.349 10.798 3.827 20.247 7.421 28.343l2.699 7.425q8.1 25.654 30.367 41.5c14.846 10.577 32.623 15.858 53.313 15.858 21.15 0 38.801-5.735 52.973-17.208s23.736-26.422 28.681-44.876c3.152-8.992 5.397-18.894 6.747-29.693 1.353-10.795 2.027-28.108 2.027-51.961s-.675-41.166-2.027-51.961c-1.349-10.798-3.595-20.247-6.747-28.343-4.944-18.441-14.509-33.625-28.681-45.551-14.172-11.916-31.822-17.882-52.973-17.882q-33.059.002-56.687 17.545c-15.743 11.705-25.866 26.994-30.367 45.888-3.142 9.003-5.397 18.789-6.747 29.355-1.349 10.573-2.024 27.563-2.024 50.949 0 22.943.675 39.816 2.024 50.611Zm768.574-67.502h-136.842a6.16 6.16 0 0 0-6.159 6.202l.135 19.374c.024 3.416 2.812 6.162 6.229 6.116 65.477-.88 174.544-1.324 174.544-1.324 4.491 0 6.747-2.246 6.747-6.75 0-17.092-.232-31.379-.675-42.849-.453-11.473-1.349-21.481-2.699-30.03-5.397-33.744-19.126-60.166-41.166-79.292-22.046-19.119-51.518-28.681-88.4-28.681q-48.587.001-81.994 25.641c-22.268 17.106-37.009 39.816-44.202 68.16-2.256 9.446-3.711 19.801-4.385 31.042-.675 11.251-1.012 27.9-1.012 49.937 0 21.15.675 38.699 2.024 52.635 1.349 13.95 3.816 26.551 7.425 37.792 8.096 26.551 23.164 47.47 45.214 62.759 22.036 15.3 48.809 22.943 80.304 22.943 28.786 0 53.869-6.515 75.244-19.569 21.361-13.044 36.998-30.589 46.901-52.635 1.792-3.598.675-6.519-3.377-8.774l-17.545-8.771c-3.605-1.796-6.525-.675-8.771 3.373q-12.83 25.651-35.431 40.15c-15.078 9.681-33.182 14.509-54.322 14.509q-39.826.001-65.795-19.232c-17.324-12.822-28.459-30.252-33.403-52.298-2.259-9.449-3.377-28.565-3.377-57.361v-35.765c.896-26.541 2.467-44.086 4.726-52.639 4.491-21.14 14.846-38.126 31.042-50.949q24.293-19.233 60.735-19.232c36.442.001 44.757 6.641 61.41 19.906 16.639 13.276 27.434 30.705 32.391 52.298 2.032 10.181 3.149 24.962 3.343 44.346.049 4.921-3.936 8.967-8.858 8.967Z" style="fill:#fff;stroke:#fff;stroke-miterlimit:10"/><path d="M1512.569 722.104q-.776-2.359.776-5.75l110.694-226.694q1.032-2.029 0-4.061l-110.694-226.691c-.695-1.799-1.034-3.152-1.034-4.061 0-2.706 1.373-4.061 4.137-4.061h19.14c2.409 0 4.476 1.587 6.207 4.738l97.762 201.655c.341.455.857.675 1.552.675.688 0 1.204-.221 1.552-.675l97.764-201.655c1.722-3.152 3.79-4.738 6.207-4.738h18.622c2.07 0 3.362.793 3.88 2.369.518 1.587.258 3.499-.776 5.753l-110.179 227.369a8 8 0 0 0 0 4.061l110.179 226.016c.686 1.808 1.034 3.16 1.034 4.059q-.002 4.061-4.137 4.061h-18.622c-2.417 0-4.485-1.576-6.207-4.736l-97.764-200.979c-.348-.898-.863-1.353-1.552-1.353-.695 0-1.211.455-1.552 1.353l-97.762 200.979c-1.731 3.16-3.799 4.736-6.207 4.736h-19.14c-2.07 0-3.362-.782-3.88-2.369Z" style="fill:#fff;stroke-width:10px;stroke:#fff;stroke-miterlimit:10"/><path d="M231.966 849.822c111.426-87.899 238.888-181.962 350.979-268.813.323-.28.817.114.741.498 0 .125-.266.529-.447.851l-.57 1.017-2.281 4.047c-39.477 70.041-101.682 179.752-141.663 250.758-6.369 11.414-40 70.996-45.551 80.999a3 3 0 0 1-.162.301c-10.333-11.736-20.266-23.866-30.057-36.131l-5.285-6.662a29 29 0 0 1-1.759-2.355c1.749-.955 3.213-2.169 4.268-3.59 2.681-3.621 2.338-7.98-.837-10.854-.209-.197-.456-.363-.694-.54l25.276-32.79c7.785-10.107 15.57-20.203 23.356-30.31.342-.301.627-.674.856-1.1 3.707-4.815 7.414-9.619 11.122-14.434l4.097-5.313q.67.063 1.34.062c2.091 0 4.259-.363 6.283-1.09 2.88-1.027 5.209-2.646 6.721-4.69 2.681-3.621 2.348-7.98-.827-10.854-1.274-1.152-2.975-2.003-4.933-2.48a17.3 17.3 0 0 0-3.66-.415h-.086c-4.943 0-9.867 2.034-12.567 5.199-1.882 2.189-2.624 4.763-2.101 7.253.304 1.453 1.027 2.739 2.091 3.819l-3.289 4.265c-3.07 3.985-6.15 7.98-9.221 11.964-6.084-1.889-11.882-3.341-17.167 2.293-4.848 5.157-9.411 10.667-14.106 15.99-5.143 5.811-10.162 11.798-15.428 17.474-1.835 1.982-3.964 3.787-6.683 3.082-2.424-.633-4.933-2.366-7.215-3.455-7.785-3.715-15.561-7.44-23.346-11.155-6.245-2.988-12.414-5.261-19.439-4.317-4.449.602-7.158 3.59-10.941 6.61l-18.736 14.973c-11.407 9.111-22.814 18.231-34.23 27.352l-.314-.125a272 272 0 0 0-8.298-3.829 85 85 0 0 0 4.762-3.507Zm233.441-152.607c2.662-2.771-1.369-7.17-4.03-4.4l-20.038 20.815c-4.458 4.638-8.916 9.277-13.384 13.915-2.747 2.854-5.599 6.672-9.477 7.533-6.416 1.422-12.576-1.38-18.574 2.791-2.11 1.463-4.011 3.518-5.913 5.271l-27.367 25.142-16.606 15.264c-5.352-.612-11.283 1.411-14.439 5.095-1.873 2.189-2.624 4.763-2.101 7.243.561 2.646 2.462 4.773 5.342 5.977.542.228 1.122.425 1.787.612a16.2 16.2 0 0 0 4.078.498c5.095 0 10.285-2.2 12.956-5.79 2.034-2.729 2.367-5.977.884-8.706-.542-.986-1.312-1.847-2.243-2.573 12.994-11.943 25.979-23.887 38.973-35.82 2.262-2.075 4.458-4.368 6.835-6.278 4.62-3.715 10.437-1.837 15.751-2.366 5.133-.519 8.565-3.684 12.063-7.326 3.802-3.953 7.605-7.896 11.407-11.85 8.032-8.353 16.065-16.696 24.097-25.049Z" class="cls-1"/><path d="M259.257 771.905c21.768-12.856 264.8-156.322 314.848-185.874-12.291 8.778-27.348 20.068-37.766 27.581-84.392 62.248-191.758 139.117-275.171 202.798l-22.681 17.308c-6.483 5.167-16.711 11.85-21.863 18.564l-2.605 3.3c.019.01.029.021.038.021a16 16 0 0 0-1.521 2.553c-.523 1.173-3.27 7.066-3.869 8.353-4.049 8.81-8.07 17.63-11.977 26.512-3.089 6.973-6.084 14.008-9.03 21.075l-15.029-50.409-.01.01-9.781-32.79c6.454-3.953 96.378-58.98 96.416-59.001Zm306.425-185.179c4.078-1.39 10.181-3.725 14.848-5.219-.684.467-1.378.955-2.091 1.453-38.726 20.628-310.656 176.888-321.91 183.57l-.171-.322-3.84 2.366c-1.103.228-2.215.249-3.317.228-4.591.031-16.483.125-21.245.145-54.211.28-115.893-.83-169.943-.197-1.312.021-2.662.031-4.021.031a4300216 4300216 0 0 0 511.692-182.055Z" class="cls-1"/><path d="M461.376 692.815c2.662-2.771 6.692 1.629 4.03 4.4-8.032 8.353-16.065 16.696-24.097 25.049-3.802 3.953-7.605 7.896-11.407 11.85-3.498 3.642-6.93 6.807-12.063 7.326-5.314.529-11.131-1.349-15.751 2.366-2.376 1.909-4.572 4.202-6.835 6.278-12.994 11.933-25.979 23.876-38.973 35.82.932.726 1.702 1.588 2.243 2.573 1.483 2.729 1.15 5.977-.884 8.706-2.671 3.59-7.861 5.79-12.956 5.79a16.2 16.2 0 0 1-4.078-.498 15 15 0 0 1-1.787-.612c-2.88-1.204-4.781-3.331-5.342-5.977-.523-2.48.228-5.053 2.101-7.243 3.156-3.684 9.087-5.707 14.439-5.095l16.606-15.264 27.367-25.142c1.901-1.754 3.802-3.808 5.913-5.271 5.998-4.171 12.158-1.37 18.574-2.791 3.878-.861 6.73-4.68 9.477-7.533 4.468-4.638 8.926-9.277 13.384-13.915l20.038-20.815Z" class="cls-2"/><path d="M391.414 795.74c1.825-1.629 4.287-1.515 6.749-.882-12.652 16.405-25.304 32.81-37.947 49.236a3277 3277 0 0 1-8.812 11.414 5.4 5.4 0 0 0-.77 1.484c-4.924.01-9.838 2.044-12.538 5.199-1.873 2.189-2.624 4.763-2.101 7.253.561 2.646 2.462 4.773 5.39 5.998.646.259 1.207.446 1.73.571 1.274.342 2.652.508 4.059.508 1.892 0 3.85-.322 5.713-.913.941.955 1.749 2.013 2.529 3.113l5.029 6.9c3.375 4.576 6.654 9.245 9.971 13.873 3.279 4.659 6.549 9.328 9.762 14.05.96 1.411 1.911 2.833 2.871 4.244l-.399-.166c-44.373-18.387-93.184-39.233-138.774-57.185 7.766-6.205 15.532-12.41 23.289-18.615 10.19-8.135 20.143-17.401 30.875-24.675 4.924-3.331 11.673-.56 16.369 1.681 7.414 3.549 14.829 7.087 22.243 10.636 5.437 2.594 11.702 7.046 17.842 5.219 5.504-1.65 9.734-8.135 13.527-12.441 6.378-7.232 12.766-14.454 19.144-21.687 1.378-1.567 2.7-3.445 4.249-4.815" class="cls-1"/><path d="m247.802 771.469-5.637.197c-59.23 1.889-124.81 6.008-183.973 7.762-2.89.073-5.846.218-8.812.291 33.108 14.403 98.546 42.865 108.384 47.151zM580.53 581.507c-4.667 1.494-10.77 3.829-14.848 5.219A4300216 4300216 0 0 1 53.99 768.781c1.359 0 2.709-.01 4.021-.031 54.049-.633 115.732.477 169.943.197 4.762-.021 16.654-.114 21.245-.145 1.103.021 2.215 0 3.317-.228l3.84-2.366.171.322c11.255-6.682 283.184-162.942 321.91-183.57.713-.498 1.407-.986 2.091-1.453Zm-44.192 32.105c10.418-7.513 25.475-18.802 37.766-27.581-50.048 29.552-293.08 173.017-314.848 185.874-.038.021-89.962 55.047-96.416 59.001l9.781 32.79.01-.01 15.029 50.409c2.947-7.066 5.941-14.102 9.03-21.075 3.907-8.882 7.928-17.702 11.977-26.512.599-1.287 3.346-7.181 3.869-8.353a16 16 0 0 1 1.521-2.553c-.01 0-.019-.01-.038-.021l2.605-3.3c5.152-6.714 15.38-13.396 21.863-18.564l22.681-17.308c83.413-63.68 190.779-140.549 275.171-202.798Zm46.607-32.603C470.854 667.86 343.392 761.923 231.966 849.822a85 85 0 0 1-4.762 3.507 271 271 0 0 1 8.298 3.829l.314.125c11.416-9.121 22.823-18.242 34.23-27.352l18.736-14.973c3.783-3.02 6.492-6.008 10.941-6.61 7.025-.944 13.194 1.328 19.439 4.317 7.785 3.715 15.561 7.44 23.346 11.155 2.281 1.09 4.791 2.822 7.215 3.455 2.719.706 4.848-1.1 6.683-3.082 5.266-5.676 10.285-11.663 15.428-17.474 4.696-5.323 9.259-10.833 14.106-15.99 5.285-5.634 11.084-4.182 17.167-2.293 3.07-3.985 6.15-7.98 9.221-11.964l3.289-4.265c-1.065-1.079-1.787-2.366-2.091-3.819-.523-2.49.219-5.064 2.101-7.253 2.7-3.165 7.624-5.199 12.567-5.199h.086c1.283.01 2.51.156 3.66.415 1.958.477 3.66 1.328 4.933 2.48 3.175 2.874 3.508 7.232.827 10.854-1.511 2.044-3.84 3.663-6.721 4.69a18.8 18.8 0 0 1-6.283 1.09q-.67 0-1.34-.062l-4.097 5.313c-3.707 4.815-7.414 9.619-11.122 14.434a3.9 3.9 0 0 1-.856 1.1c-7.785 10.107-15.57 20.203-23.356 30.31l-25.276 32.79c.238.176.485.342.694.54 3.175 2.874 3.517 7.232.837 10.854-1.055 1.422-2.519 2.636-4.268 3.59a29 29 0 0 0 1.759 2.355l5.285 6.662c9.791 12.265 19.724 24.395 30.057 36.131.057-.093.114-.197.162-.301 5.551-10.003 39.182-69.585 45.551-80.999 39.981-71.006 102.186-180.717 141.663-250.758l2.281-4.047.57-1.017c.181-.322.447-.726.447-.851.076-.384-.418-.778-.741-.498Zm-8.765 2.179c2.833-.996 5.684-1.909 8.451-3.103.418-.218.951-.228 1.331.062.447.301.751.903.665 1.525-.038.291-.2.602-.276.726l-.276.519-.551 1.017-2.215 4.099c-2.624 4.835-10.475 19.456-13.251 24.571-50.494 93.554-117.262 217.564-168.032 311.066-1.036 2.272-2.776 4.036-4.819 5.074a3.55 3.55 0 0 1-2.471.872 8.76 8.76 0 0 1-4.933-.394c-42.804-17.225-89.857-36.349-133.669-54.57-21.16 16.467-42.833 33.236-64.449 48.956-.589.643-1.359 1.017-2.205 1.058-.086.01-.171.021-.257.021-1.416 0-2.728-1.038-3.175-2.604l-26.464-88.698a3 3 0 0 1-.665-.187S29.2 777.653 28.507 777.341c-.922-.249-1.711-.986-2.034-2.044a3.35 3.35 0 0 1 .276-2.563c.029-.052.067-.104.095-.156.038-.062.067-.125.114-.187.361-.54.894-.944 1.587-1.121.057-.01.114-.031.181-.042 144.458-49.766 377.281-130.121 519.467-179.088l17.329-5.966 8.66-2.988Zm-176.017 211.67c-2.462-.633-4.924-.747-6.749.882-1.549 1.37-2.871 3.248-4.249 4.815-6.378 7.232-12.766 14.454-19.144 21.687-3.793 4.306-8.023 10.792-13.527 12.441-6.141 1.826-12.405-2.625-17.842-5.219-7.414-3.549-14.829-7.087-22.243-10.636-4.696-2.241-11.445-5.012-16.369-1.681-10.732 7.274-20.684 16.54-30.875 24.675-7.757 6.205-15.523 12.41-23.289 18.615 45.589 17.951 94.401 38.798 138.774 57.185 0 0 .152.062.399.166-.96-1.411-1.911-2.833-2.871-4.244-3.213-4.721-6.483-9.391-9.762-14.05-3.317-4.628-6.597-9.297-9.971-13.873l-5.029-6.9c-.779-1.1-1.587-2.158-2.529-3.113-1.863.591-3.821.913-5.713.913-1.407 0-2.785-.166-4.059-.508a12 12 0 0 1-1.73-.571c-2.928-1.224-4.829-3.352-5.39-5.998-.523-2.49.228-5.064 2.101-7.253 2.7-3.154 7.614-5.188 12.538-5.199a5.4 5.4 0 0 1 .77-1.484c2.947-3.798 5.884-7.606 8.812-11.414a64571 64571 0 0 1 37.947-49.236M250.74 873.241c-5.96-2.48-11.863-4.95-17.671-7.388-4.097-1.691-8.127-3.621-12.025-5.842a6.2 6.2 0 0 0-1.492 2.044c-7.586 16.613-15.38 33.163-23.546 49.454 18.099-13.095 36.217-25.547 54.734-38.268" class="cls-2"/><path d="m247.802 771.469-90.038 55.4c-9.838-4.285-75.276-32.748-108.384-47.151 2.966-.073 5.922-.218 8.812-.291 59.163-1.754 124.743-5.873 183.973-7.762zm-14.734 94.384a6150 6150 0 0 0 17.671 7.388c-18.517 12.722-36.635 25.173-54.734 38.268 8.165-16.291 15.96-32.842 23.546-49.454a6.2 6.2 0 0 1 1.492-2.044c3.897 2.221 7.928 4.151 12.025 5.842" class="cls-1"/></svg>